HIERARCHY
ROOT joint_Root
{
  OFFSET 0 0 0
  CHANNELS 6 Xposition Yposition Zposition Zrotation Xrotation Yrotation
  JOINT Hips
  {
    OFFSET 0 93.9241 -3
    CHANNELS 6 Xposition Yposition Zposition Zrotation Xrotation Yrotation
    JOINT Spine
    {
      OFFSET 15.7357 0 0
      CHANNELS 6 Xposition Yposition Zposition Zrotation Xrotation Yrotation
      JOINT Chest
      {
        OFFSET 8.98455 -0.406207 0
        CHANNELS 6 Xposition Yposition Zposition Zrotation Xrotation Yrotation
        JOINT Neck
        {
          OFFSET 16.3773 0 0
          CHANNELS 6 Xposition Yposition Zposition Zrotation Xrotation Yrotation
          JOINT Head
          {
            OFFSET 6.45672 0 0
            CHANNELS 6 Xposition Yposition Zposition Zrotation Xrotation Yrotation
            End Site
            {
              OFFSET 0 0 0
            }
          }
        }
        JOINT Shoulder_L
        {
          OFFSET 12.9942 -0.242716 4.98039
          CHANNELS 6 Xposition Yposition Zposition Zrotation Xrotation Yrotation
          JOINT UpperArm_L
          {
            OFFSET 5.34809 0 0
            CHANNELS 6 Xposition Yposition Zposition Zrotation Xrotation Yrotation
            JOINT LowerArm_L
            {
              OFFSET 24.3286 1.87007e-05 0
              CHANNELS 6 Xposition Yposition Zposition Zrotation Xrotation Yrotation
              JOINT Hand_L
              {
                OFFSET 22.2916 0 0
                CHANNELS 6 Xposition Yposition Zposition Zrotation Xrotation Yrotation
                End Site
                {
                  OFFSET 0 0 0
                }
              }
            }
          }
        }
        JOINT Shoulder_R
        {
          OFFSET 12.9945 -0.242716 -4.98039
          CHANNELS 6 Xposition Yposition Zposition Zrotation Xrotation Yrotation
          JOINT UpperArm_R
          {
            OFFSET -5.34813 0 0
            CHANNELS 6 Xposition Yposition Zposition Zrotation Xrotation Yrotation
            JOINT LowerArm_R
            {
              OFFSET -24.3289 0.000322201 0
              CHANNELS 6 Xposition Yposition Zposition Zrotation Xrotation Yrotation
              JOINT Hand_R
              {
                OFFSET -22.2915 -0.000108084 0
                CHANNELS 6 Xposition Yposition Zposition Zrotation Xrotation Yrotation
                End Site
                {
                  OFFSET 0 0 0
                }
              }
            }
          }
        }
      }
    }
    JOINT UpperLeg_L
    {
      OFFSET -2.19248 -6.46944 0
      CHANNELS 6 Xposition Yposition Zposition Zrotation Xrotation Yrotation
      JOINT LowerLeg_L
      {
        OFFSET 39.0811 0 -1.23785e-05
        CHANNELS 6 Xposition Yposition Zposition Zrotation Xrotation Yrotation
        JOINT Foot_L
        {
          OFFSET 40.9854 0 -1.26872e-05
          CHANNELS 6 Xposition Yposition Zposition Zrotation Xrotation Yrotation
          JOINT Toes_L
          {
            OFFSET 11.7543 0 0
            CHANNELS 6 Xposition Yposition Zposition Zrotation Xrotation Yrotation
            End Site
            {
              OFFSET 0 0 0
            }
          }
        }
      }
    }
    JOINT UpperLeg_R
    {
      OFFSET -2.19251 6.46944 0
      CHANNELS 6 Xposition Yposition Zposition Zrotation Xrotation Yrotation
      JOINT LowerLeg_R
      {
        OFFSET -39.0811 -0.00228153 -0.0401928
        CHANNELS 6 Xposition Yposition Zposition Zrotation Xrotation Yrotation
        JOINT Foot_R
        {
          OFFSET -40.9854 0 0
          CHANNELS 6 Xposition Yposition Zposition Zrotation Xrotation Yrotation
          JOINT Toes_R
          {
            OFFSET -11.7543 0 0
            CHANNELS 6 Xposition Yposition Zposition Zrotation Xrotation Yrotation
            End Site
            {
              OFFSET 0 0 0
            }
          }
        }
      }
    }
  }
}
MOTION
Frames:	4
Frame Time:	0.0333333
0 0 0 0 0 -0 0.0725063 90.8442 -14.6599 87.354 -24.1672 2.26006 15.7357 5.1072e-06 -5.51765e-07 156.144 85.9318 -155.549 8.98455 -0.406207 -4.3199e-07 -4.5332 7.37126 1.4833 16.3773 -1.3905e-06 -6.99897e-07 -14.458 8.88555 -2.24362 6.45672 -1.25837e-06 -1.02172e-07 -2.20884 6.30363 -1.92599 12.9942 -0.242716 4.98039 -87.041 -6.9446 -81.8524 5.34809 -7.22636e-06 -6.2814e-07 5.21707 -65.3222 -41.2902 24.3286 1.87007e-05 4.90208e-06 18.9186 20.2996 -44.6507 22.2916 -9.88446e-07 4.63217e-06 59.0669 5.56749 -9.56245 12.9945 -0.242716 -4.98039 93.6862 -12.6887 -88.6534 -5.34813 -1.25947e-06 -3.79883e-06 -21.3585 -59.9711 -74.253 -24.3289 0.000322201 -8.65921e-06 6.42816 9.57715 -34.0937 -22.2915 -0.000108084 -4.47941e-06 52.3066 5.68239 -21.7483 -2.19248 -6.46944 -1.22534e-07 -179.405 -11.0164 -20.2843 39.0811 -6.73843e-06 -1.23785e-05 -0.0104573 0.0232009 28.696 40.9854 -6.48686e-06 -1.26872e-05 2.43118 -8.84127 -55.8132 11.7543 -2.30145e-07 3.05095e-06 0.0663834 -0.0745459 -17.3049 -2.19251 6.46944 -1.45247e-06 -170.702 20.9367 173.796 -39.0811 -0.00228153 -0.0401928 0.112938 -0.185743 24.4217 -40.9854 7.72618e-06 5.99936e-06 1.29656 -22.7252 -68.968 -11.7543 -5.6619e-06 -5.58687e-06 -0.103937 0.0470454 -16.5742 
0 0 0 0 0 -0 -0.065866 90.8242 -14.6029 87.3632 -23.8201 2.24971 15.7357 5.1072e-06 -5.51765e-07 156.712 85.922 -156.276 8.98455 -0.406207 -4.3199e-07 -4.59022 7.43796 1.17241 16.3773 -1.3905e-06 -6.99897e-07 -14.6252 8.77945 -2.54659 6.45672 -1.25837e-06 -1.02172e-07 -2.66644 5.92609 -1.73801 12.9942 -0.242716 4.98039 -86.8805 -7.27377 -81.7107 5.34809 -7.22636e-06 -6.2814e-07 1.37394 -65.8454 -44.7443 24.3286 1.87007e-05 4.90208e-06 14.4585 18.5389 -39.032 22.2916 -9.88446e-07 4.63217e-06 55.5307 5.55151 -8.72037 12.9945 -0.242716 -4.98039 93.803 -13.1608 -88.7247 -5.34813 -1.25947e-06 -3.79883e-06 -25.3881 -60.573 -76.9339 -24.3289 0.000322201 -8.65921e-06 3.43408 7.03963 -26.0768 -22.2915 -0.000108084 -4.47941e-06 49.03 5.67861 -18.7081 -2.19248 -6.46944 -1.22534e-07 -179.352 -10.6011 -20.3452 39.0811 -6.73843e-06 -1.23785e-05 -0.0109389 0.0230964 28.8679 40.9854 -6.48686e-06 -1.26872e-05 2.32701 -8.90914 -55.9266 11.7543 -2.30145e-07 3.05095e-06 0.0689545 -0.0774629 -17.3333 -2.19251 6.46944 -1.45247e-06 -170.663 21.318 173.85 -39.0811 -0.00228153 -0.0401928 0.111198 -0.182386 24.397 -40.9854 7.72618e-06 5.99936e-06 1.28587 -22.7159 -69.0974 -11.7543 -5.6619e-06 -5.58687e-06 -0.0957381 0.0429951 -16.574 
0 0 0 0 0 -0 -0.172202 90.8326 -14.546 87.433 -23.5141 2.15792 15.7357 5.1072e-06 -5.51765e-07 157.979 85.9199 -157.725 8.98455 -0.406207 -4.3199e-07 -4.74494 7.53008 0.821695 16.3773 -1.3905e-06 -6.99897e-07 -14.8749 8.68092 -2.86995 6.45672 -1.25837e-06 -1.02172e-07 -2.90155 5.43353 -1.56618 12.9942 -0.242716 4.98039 -86.6674 -7.63041 -81.3205 5.34809 -7.22636e-06 -6.2814e-07 -4.69249 -66.6008 -50.8204 24.3286 1.87007e-05 4.90208e-06 8.97439 14.1858 -32.7849 22.2916 -9.88446e-07 4.63217e-06 48.2717 5.47059 -5.2374 12.9945 -0.242716 -4.98039 93.8814 -13.6228 -88.9304 -5.34813 -1.25947e-06 -3.79883e-06 -32.933 -61.1815 -82.6017 -24.3289 0.000322201 -8.65921e-06 1.59827 4.88346 -18.1243 -22.2915 -0.000108084 -4.47941e-06 45.5574 5.62732 -12.9972 -2.19248 -6.46944 -1.22534e-07 -179.363 -10.2015 -20.4109 39.0811 -6.73843e-06 -1.23785e-05 -0.0134712 0.0287882 28.8523 40.9854 -6.48686e-06 -1.26872e-05 2.22655 -8.96445 -55.9516 11.7543 -2.30145e-07 3.05095e-06 0.063099 -0.0708104 -17.2687 -2.19251 6.46944 -1.45247e-06 -170.65 21.5206 173.834 -39.0811 -0.00228153 -0.0401928 0.106794 -0.17399 24.2704 -40.9854 7.72618e-06 5.99936e-06 1.26803 -22.7934 -69.1434 -11.7543 -5.6619e-06 -5.58687e-06 -0.100407 0.0448328 -16.5741 
0 0 0 0 0 -0 -0.260396 90.8525 -14.4683 87.5076 -23.2758 2.08203 15.7357 5.1072e-06 -5.51765e-07 159.439 85.8944 -159.331 8.98455 -0.406207 -4.3199e-07 -4.91302 7.66857 0.545229 16.3773 -1.3905e-06 -6.99897e-07 -15.0859 8.72022 -3.30817 6.45672 -1.25837e-06 -1.02172e-07 -2.88656 4.90252 -1.52798 12.9942 -0.242716 4.98039 -86.6421 -7.59831 -81.0716 5.34809 -7.22636e-06 -6.2814e-07 -11.054 -67.4105 -58.4858 24.3286 1.87007e-05 4.90208e-06 6.07929 12.2714 -26.611 22.2916 -9.88446e-07 4.63217e-06 40.086 5.23859 1.97244 12.9945 -0.242716 -4.98039 94.0363 -14.0905 -88.8361 -5.34813 -1.25947e-06 -3.79883e-06 -44.7882 -61.0979 -92.5516 -24.3289 0.000322201 -8.65921e-06 0.0337788 0.162264 -11.0607 -22.2915 -0.000108084 -4.47941e-06 44.2853 5.44241 -4.4104 -2.19248 -6.46944 -1.22534e-07 -179.422 -9.90302 -20.4203 39.0811 -6.73843e-06 -1.23785e-05 -0.0133199 0.0288754 28.7604 40.9854 -6.48686e-06 -1.26872e-05 2.17507 -9.08042 -55.9512 11.7543 -2.30145e-07 3.05095e-06 0.0657962 -0.073862 -17.2983 -2.19251 6.46944 -1.45247e-06 -170.662 21.602 173.87 -39.0811 -0.00228153 -0.0401928 0.101843 -0.164923 24.0952 -40.9854 7.72618e-06 5.99936e-06 1.22451 -22.9461 -69.1601 -11.7543 -5.6619e-06 -5.58687e-06 -0.106549 0.0473046 -16.574 
